<svg width="72" height="72" viewBox="0 0 72 72" fill="none" xmlns="http://www.w3.org/2000/svg">
<circle cx="36" cy="36" r="36" fill="black"/>
<path d="M26.5175 35.2625L45.6837 16.12C46.3085 15.475 47.0554 14.9608 47.8808 14.6073C48.7062 14.2539 49.5937 14.0681 50.4916 14.061C51.3895 14.0539 52.2799 14.2255 53.1108 14.5658C53.9418 14.9061 54.6967 15.4084 55.3316 16.0433C55.9666 16.6782 56.4688 17.4332 56.8091 18.2641C57.1495 19.0951 57.3211 19.9854 57.3139 20.8833C57.3068 21.7812 57.1211 22.6687 56.7676 23.4942C56.4141 24.3196 55.8999 25.0664 55.255 25.6912L36.1125 44.8812" stroke="url(#paint0_linear_4_47)" stroke-width="4" stroke-linecap="round" stroke-linejoin="round"/>
<path d="M21.7912 42.4825C17.8487 42.4825 14.6662 45.6888 14.6662 49.655C14.6662 52.8138 8.72874 53.265 9.91624 54.4525C12.4812 57.065 15.83 59.25 19.4162 59.25C24.6412 59.25 28.9162 54.975 28.9162 49.655C28.9194 48.7163 28.7375 47.786 28.3812 46.9175C28.0248 46.049 27.5008 45.2592 26.8392 44.5931C26.1776 43.9271 25.3913 43.3979 24.5251 43.0358C23.659 42.6737 22.73 42.4857 21.7912 42.4825Z" stroke="url(#paint1_linear_4_47)" stroke-width="4" stroke-linecap="round" stroke-linejoin="round"/>
<path d="M45.4825 35.2625L26.3163 16.12C25.6915 15.475 24.9446 14.9608 24.1192 14.6073C23.2938 14.2539 22.4063 14.0681 21.5084 14.061C20.6105 14.0539 19.7201 14.2255 18.8892 14.5658C18.0582 14.9061 17.3033 15.4084 16.6684 16.0433C16.0334 16.6782 15.5312 17.4332 15.1909 18.2641C14.8505 19.0951 14.6789 19.9854 14.6861 20.8833C14.6932 21.7812 14.8789 22.6687 15.2324 23.4942C15.5859 24.3196 16.1001 25.0664 16.745 25.6912L35.8875 44.8812" stroke="url(#paint2_linear_4_47)" stroke-width="4" stroke-linecap="round" stroke-linejoin="round"/>
<path d="M50.2088 42.4825C54.1513 42.4825 57.3338 45.6888 57.3338 49.655C57.3338 52.8138 63.2713 53.265 62.0838 54.4525C59.5188 57.065 56.17 59.25 52.5838 59.25C47.3588 59.25 43.0838 54.975 43.0838 49.655C43.0806 48.7163 43.2625 47.786 43.6188 46.9175C43.9752 46.049 44.4992 45.2592 45.1608 44.5931C45.8224 43.9271 46.6087 43.3979 47.4749 43.0358C48.341 42.6737 49.27 42.4857 50.2088 42.4825Z" stroke="url(#paint3_linear_4_47)" stroke-width="4" stroke-linecap="round" stroke-linejoin="round"/>
<defs>
<linearGradient id="paint0_linear_4_47" x1="41.9158" y1="14.0608" x2="41.9158" y2="44.8812" gradientUnits="userSpaceOnUse">
<stop stop-color="#D90077"/>
<stop offset="1" stop-color="#8800C7"/>
</linearGradient>
<linearGradient id="paint1_linear_4_47" x1="19.3377" y1="42.4825" x2="12.5" y2="55.5001" gradientUnits="userSpaceOnUse">
<stop stop-color="#D90077"/>
<stop offset="1" stop-color="#8800C7"/>
</linearGradient>
<linearGradient id="paint2_linear_4_47" x1="30.0842" y1="14.0608" x2="30.0842" y2="44.8812" gradientUnits="userSpaceOnUse">
<stop stop-color="#D90077"/>
<stop offset="1" stop-color="#8800C7"/>
</linearGradient>
<linearGradient id="paint3_linear_4_47" x1="52.6623" y1="42.4825" x2="61" y2="57.5001" gradientUnits="userSpaceOnUse">
<stop stop-color="#D90077"/>
<stop offset="1" stop-color="#8800C7"/>
</linearGradient>
</defs>
</svg>
