<svg xmlns:x="http://ns.adobe.com/Extensibility/1.0/" xmlns:i="http://ns.adobe.com/AdobeIllustrator/10.0/" xmlns:graph="http://ns.adobe.com/Graphs/1.0/" xmlns="http://www.w3.org/2000/svg" xmlns:xlink="http://www.w3.org/1999/xlink" version="1.1" id="Isolation_Mode" x="0px" y="0px" viewBox="0 0 150 43.4" style="enable-background:new 0 0 150 43.4;" xml:space="preserve" width="200"  height="58" >
<style type="text/css">
	.st0{fill:#E32119;}
</style>
<metadata>
	<sfw xmlns="http://ns.adobe.com/SaveForWeb/1.0/">
		<slices/>
		<sliceSourceBounds bottomLeftOrigin="true" height="43.4" width="150" x="0" y="3.6"/>
	</sfw>
</metadata>
<g>
	<path class="st0" d="M31.9,18.6h2.3v-7.8h2.1l7,12.7h2.8l-5.8-10c-0.6-1-1.4-2.3-1.8-3c2-0.7,3.2-2,3.2-4.3c0-3-1.9-4.6-4.8-4.6   h-5.2c0.1,1,0.2,2,0.2,3.6L31.9,18.6L31.9,18.6z M18.3,19.8c-2.1,1.1-3.7,1.5-6,1.5c-5.3,0-9.6-3.2-9.6-9.3c0-6.5,4.5-9.7,9.3-9.7   c2.2,0,4,0.4,5.9,1.5l0.3-2.6C16.4,0.4,14.6,0,12,0C5.2,0,0,5,0,12c0,6.7,4.8,11.6,12.3,11.6c2.1,0,4.2-0.4,6.4-1.4L18.3,19.8   L18.3,19.8z M26.1,15.3c0.4,1,0.7,1.6,1.2,3.3H30L22.6,0.7l-7.3,17.9h2.7c0.4-1.5,0.8-2.5,1.2-3.6l0.2-0.6h6.3L26.1,15.3L26.1,15.3   z M24.8,12.4h-4.6l1.3-3.5c0.4-1.1,0.8-2.2,1-2.7c0.3,0.8,0.5,1.5,1,2.7L24.8,12.4L24.8,12.4z M39.4,6.1c0,1.6-1.1,2.6-3,2.6h-2.2   V3.6h2.5C38.3,3.6,39.4,4.4,39.4,6.1L39.4,6.1z M60.9,1.5c0.2,1.1,0.3,2.1,0.3,3.6v13.5h2.2V7.8c0-1.2,0-1.9,0-2.5c0,0,0,0,0,0   l12,13.9V1.5h-2.2v7.6c0,1.6,0,3,0.1,3.9c0,0,0,0,0,0c-0.5-0.7-1.1-1.4-1.9-2.4l-7.9-9.1H60.9L60.9,1.5z M86.8,6.2   c0,2-1,3.2-3.2,3.2h-0.6v-6h0.6C85.8,3.4,86.8,4.4,86.8,6.2L86.8,6.2z M81,11.2h2.6c3.8,0,5.4-2,5.4-5c0-2.6-1.5-4.7-5.1-4.7h-3   C81,2.4,81,2.9,81,3.7L81,11.2L81,11.2z M91.4,6.4h1.8l2-4.9h-2.5L91.4,6.4L91.4,6.4z M120.7,15.3c-1.5,0.9-2.5,1.3-4.4,1.3   c-3.4,0-6.4-2.1-6.4-6.3c0-4.6,3.1-6.8,6.2-6.8c1.6,0,2.9,0.4,4.4,1.3l0.5-2.5c-1.4-0.6-2.8-1-4.7-1c-5,0-8.9,3.7-8.9,9   c0,4.9,3.7,8.4,8.9,8.4c1.9,0,3.4-0.3,5.1-1.3L120.7,15.3L120.7,15.3z M123.6,1.5c0.1,1,0.2,2,0.2,3.6v13.4h2.4v-7.9h8.4v7.9h2.4   V1.5h-2.4v7.1h-8.4V1.5H123.6L123.6,1.5z M140.6,1.5c0.1,1,0.2,2,0.2,3.6v13.4h9l0.2-2h-6.8v-5.9h5.3l0.2-2h-5.5V3.6h6.3l0.3-2   L140.6,1.5L140.6,1.5z M55.1,15.3c0.4,1,0.7,1.6,1.2,3.3h2.8L51.7,0.7l-7.3,17.9H47c0.4-1.5,0.8-2.5,1.2-3.6l0.2-0.6h6.3L55.1,15.3   L55.1,15.3z M53.9,12.4h-4.6c0.8-2,2.1-5.5,2.3-6.2c0.2,0.8,0.5,1.5,1,2.7L53.9,12.4L53.9,12.4z M104.5,19.1   c0.6,1.6,1.1,2.8,1.6,4.3h2.7L99.5,0.7l-7.3,17.9h2.7c0.4-1.5,0.8-2.5,1.2-3.6l0.2-0.6h6.3L104.5,19.1L104.5,19.1z M101.7,12.4   h-4.6c0.8-2.1,2.1-5.5,2.3-6.2c0.3,0.8,0.5,1.5,1,2.7L101.7,12.4L101.7,12.4z"/>
	<path class="st0" d="M63.4,37.4h-4.1l-0.1,1.1H62v2.9c-0.6,0.3-1.3,0.5-2.2,0.5c-2.3,0-4.3-1.6-4.3-4.6c0-3.2,2.2-4.8,4.4-4.8   c1.1,0,2,0.3,2.9,0.8l0.3-1.5c-0.9-0.4-1.8-0.6-3.1-0.6c-3.4,0-6,2.5-6,6.1c0,3.3,2.4,5.8,5.8,5.8c1.3,0,2.3-0.2,3.6-0.9v-2.6   C63.3,38.7,63.4,38.1,63.4,37.4L63.4,37.4z M70.7,39.2v-0.4c0-2.2-1.3-3.1-2.8-3.1c-1.9,0-3.3,1.5-3.3,3.8c0,2.4,1.5,3.6,3.4,3.6   c0.9,0,1.7-0.3,2.4-1l-0.5-0.9c-0.6,0.5-1.2,0.8-1.9,0.8c-1.1,0-2.2-0.8-2.2-2.8v-0.2L70.7,39.2L70.7,39.2z M69.4,38.3H66   c0.2-0.9,0.9-1.5,1.9-1.5C68.6,36.7,69.3,37.2,69.4,38.3L69.4,38.3z M77.6,38.2c0-1.8-0.9-2.5-2.2-2.5c-1,0-1.8,0.6-2.2,1.2l0,0   l0.1-1l-1.3,0.2l0.1,1.8V43h1.2v-5.5c0.6-0.6,1.1-0.8,1.8-0.8c1,0,1.5,0.5,1.5,1.7V43h1.2V38.2L77.6,38.2z M85,39.2v-0.4   c0-2.2-1.3-3.1-2.8-3.1c-1.9,0-3.3,1.5-3.3,3.8c0,2.4,1.5,3.6,3.4,3.6c0.9,0,1.7-0.3,2.4-1l-0.5-0.9c-0.6,0.5-1.2,0.8-1.9,0.8   c-1.1,0-2.2-0.8-2.2-2.8v-0.2L85,39.2L85,39.2z M83.7,38.3h-3.4c0.2-0.9,0.9-1.5,1.9-1.5C82.9,36.7,83.6,37.2,83.7,38.3L83.7,38.3z    M81.6,31.4h-1.4l1.6,3.2h0.8L81.6,31.4L81.6,31.4z M87.1,37.4c-0.2-0.4-0.3-0.9-0.5-1.5h-1.4l3.2,7.5l3.1-7.5h-1.3   c-0.1,0.5-0.3,1.1-0.5,1.6l-0.7,1.9c-0.2,0.6-0.3,0.9-0.5,1.2h0c-0.1-0.4-0.3-0.7-0.5-1.2L87.1,37.4L87.1,37.4z M97.8,39.2v-0.4   c0-2.2-1.3-3.1-2.8-3.1c-1.9,0-3.3,1.5-3.3,3.8c0,2.4,1.5,3.6,3.4,3.6c0.9,0,1.7-0.3,2.4-1L97,41.3c-0.6,0.5-1.2,0.8-1.9,0.8   c-1.1,0-2.2-0.8-2.2-2.8v-0.2L97.8,39.2L97.8,39.2z M96.5,38.3h-3.4c0.2-0.9,0.9-1.5,1.9-1.5C95.7,36.7,96.4,37.2,96.5,38.3   L96.5,38.3z"/>
</g>
</svg>